#!OML:ASF I:\Actors\actors\Patient Classification 2\Patient 1\Session 1\actor1.ASF
:FULLY-SPECIFIED
:DEGREES
739
root -0.697162 18.7003 5.85922 3.00872 -3.43832 -1.86018
lowerback 0.347203 1.30868 -0.512928
upperback -1.60497 1.74856 0.58764
thorax -1.87219 0.886331 0.854287
lowerneck -10.2892 -2.52656 -0.485929
upperneck 20.4908 -4.27722 3.97965
head 8.1379 -1.68348 0.972761
rclavicle 3.94052e-014 -1.26228e-014
rhumerus -30.2889 36.0774 -85.3925
rradius 107.76
rwrist -38.9892
rhand -5.68759 -43.8534
rfingers 7.12502
rthumb 20.1326 -72.8302
lclavicle 3.94052e-014 -1.26228e-014
lhumerus -24.8995 -38.8227 90.0387
lradius 106.118
lwrist 65.1546
lhand -24.6684 -17.4333
lfingers 7.12502
lthumb 1.83181 12.5386
rfemur 0 0 0
rtibia 0
rfoot 0 0
rtoes 0
lfemur -4.18425 -7.85997 -12.9088
ltibia 21.2426
lfoot -26.06 18.0101
ltoes -54.0166
740
root -0.697059 18.7003 5.85891 3.0001 -3.44827 -1.85468
lowerback 0.335779 1.31706 -0.532897
upperback -1.60479 1.75951 0.587431
thorax -1.86641 0.892089 0.865305
lowerneck -10.336 -2.54045 -0.494044
upperneck 20.5561 -4.29745 3.9744
head 8.16888 -1.69234 0.969711
rclavicle -6.735e-015 -4.67144e-015
rhumerus -30.1578 36.1038 -85.2478
rradius 107.665
rwrist -39.0834
rhand -5.5882 -43.9166
rfingers 7.12502
rthumb 20.2282 -72.8833
lclavicle -6.735e-015 -4.67144e-015
lhumerus -24.8887 -38.8375 90.0628
lradius 106.009
lwrist 65.1782
lhand -24.6444 -17.3657
lfingers 7.12502
lthumb 1.85504 12.606
rfemur 0 0 0
rtibia 0
rfoot 0 0
rtoes 0
lfemur -4.16712 -7.9034 -12.9219
ltibia 21.2406
lfoot -26.1168 18.0019
ltoes -53.9225
741
root -0.697664 18.6997 5.85863 2.98964 -3.43968 -1.8577
lowerback 0.331203 1.32868 -0.537175
upperback -1.61838 1.77488 0.579291
thorax -1.87797 0.899849 0.858959
lowerneck -10.3334 -2.5644 -0.558765
upperneck 20.6076 -4.33763 4.05134
head 8.18991 -1.70794 1.002
rclavicle 8.62228e-015 -8.74653e-015
rhumerus -30.1446 36.0859 -85.2342
rradius 107.569
rwrist -39.1298
rhand -5.57877 -43.8775
rfingers 7.12502
rthumb 20.2372 -72.8433
lclavicle 8.62228e-015 -8.74653e-015
lhumerus -24.9024 -38.8745 90.1046
lradius 105.922
lwrist 65.2188
lhand -24.6247 -17.2165
lfingers 7.12502
lthumb 1.874 12.755
rfemur 0 0 0
rtibia 0
rfoot 0 0
rtoes 0
lfemur -4.15758 -7.92074 -12.9157
ltibia 21.24
lfoot -26.1306 17.9755
ltoes -53.8331
742
root -0.698038 18.6992 5.85774 2.98141 -3.42693 -1.87611
lowerback 0.341089 1.34073 -0.515149
upperback -1.64335 1.79114 0.570628
thorax -1.9085 0.907741 0.8368
lowerneck -10.2909 -2.58534 -0.620463
upperneck 20.6205 -4.37141 4.12546
head 8.19044 -1.72184 1.03402
rclavicle -5.72748e-015 3.97569e-015
rhumerus -30.2356 36.02 -85.3384
rradius 107.472
rwrist -39.1067
rhand -5.57965 -43.7858
rfingers 7.12502
rthumb 20.2364 -72.7517
lclavicle -5.72748e-015 3.97569e-015
lhumerus -24.9652 -38.8917 90.1675
lradius 105.858
lwrist 65.2504
lhand -24.5921 -17.0265
lfingers 7.12502
lthumb 1.90548 12.9447
rfemur 0 0 0
rtibia 0
rfoot 0 0
rtoes 0
lfemur -4.15779 -7.85328 -12.8839
ltibia 21.2313
lfoot -26.0611 17.9376
ltoes -53.8639
743
root -0.697359 18.6992 5.85702 2.98068 -3.42934 -1.86653
lowerback 0.327655 1.34571 -0.510078
upperback -1.65513 1.79757 0.549726
thorax -1.91233 0.910744 0.812594
lowerneck -10.2966 -2.58868 -0.573407
upperneck 20.6607 -4.3804 4.09492
head 8.20354 -1.72465 1.01502
rclavicle -1.09456e-014 6.06293e-015
rhumerus -30.2629 35.9587 -85.4111
rradius 107.359
rwrist -39.0806
rhand -5.40939 -43.8375
rfingers 7.12502
rthumb 20.4 -72.786
lclavicle -1.09456e-014 6.06293e-015
lhumerus -25.016 -38.8847 90.206
lradius 105.807
lwrist 65.3129
lhand -24.606 -16.936
lfingers 7.12502
lthumb 1.89213 13.0354
rfemur 0 0 0
rtibia 0
rfoot 0 0
rtoes 0
lfemur -4.15723 -7.81718 -12.8951
ltibia 21.219
lfoot -25.993 17.9388
ltoes -53.9371
